<svg xmlns="http://www.w3.org/2000/svg" width="800" height="800" viewBox="0 0 800 800" version="1.1"><path d="M 414.899 347.406 C 414.569 347.751, 408.269 348.144, 400.899 348.278 C 388.176 348.510, 387.161 348.682, 380.775 351.697 C 368.315 357.579, 360.418 368.687, 359.394 381.772 C 359.104 385.472, 357.941 391.538, 356.808 395.250 C 355.185 400.570, 354.852 403.748, 355.235 410.250 C 355.818 420.154, 357.075 423.893, 364.114 436.655 C 374.321 455.159, 385.355 463.815, 401.789 466.211 C 420.084 468.877, 441.807 460.420, 456.628 444.861 C 467.622 433.319, 472 421.441, 472 403.157 C 472 394.185, 471.536 390.634, 469.535 384.302 C 464.207 367.438, 453.598 356.599, 436.264 350.307 C 429.970 348.022, 416.109 346.140, 414.899 347.406" stroke="none" fill="#e40404" fill-rule="evenodd"/><path d="M 351.950 21.888 C 335.158 23.785, 326.461 33.875, 322.978 55.500 C 322.446 58.800, 322.009 72.987, 322.006 87.027 C 321.999 118.816, 322.896 116.908, 306 121.042 C 294.204 123.928, 276.263 130.437, 262.307 136.893 C 255.263 140.152, 246.661 143.554, 243.192 144.452 C 221.601 150.041, 200.219 161.248, 183.205 175.893 C 172.116 185.438, 146.931 214.665, 127.532 240.500 C 97.549 280.431, 93.686 289.112, 91.044 322.500 C 90.434 330.200, 89.686 337.753, 89.381 339.284 C 88.332 344.549, 87.027 344.773, 54.500 345.267 C 26.140 345.698, 24.214 345.846, 19.273 347.975 C 12.274 350.990, 6.513 357.360, 4.623 364.173 C 0.048 380.660, -1.019 418.537, 2.406 442.850 C 4.156 455.275, 4.559 456.610, 8.227 462.102 C 10.395 465.348, 14.043 469.518, 16.334 471.370 C 25.812 479.027, 30.056 479.649, 50.634 476.395 C 66.565 473.876, 97.226 472.087, 102.364 473.377 C 105.927 474.271, 106.546 475.857, 108.454 489 C 112.344 515.799, 120.311 546.710, 126.489 558.978 C 128.370 562.713, 133.441 570.208, 137.758 575.634 C 142.075 581.060, 148.432 589.100, 151.885 593.500 C 161.398 605.624, 186.370 632.355, 196.500 641.257 C 207.007 650.490, 217.642 656.037, 244.500 666.290 C 273.008 677.174, 290.993 682.299, 315.447 686.508 C 329.748 688.969, 340.541 692.456, 344.352 695.847 C 348.119 699.198, 348.731 702.228, 349.337 720.500 C 349.886 737.070, 350.625 743.277, 353.950 759.271 C 355.506 766.753, 360.014 772.753, 366.507 775.985 L 371.500 778.469 412.500 778.485 C 460.584 778.503, 456.156 779.504, 470.776 765.303 C 478.204 758.087, 479.968 755.791, 480.564 752.568 C 481.249 748.860, 480.840 730.989, 479.395 701.500 C 478.765 688.648, 478.786 688.474, 481.181 686.262 C 482.513 685.031, 489.832 681.324, 497.445 678.024 C 536.384 661.145, 571.499 636.968, 606.372 603.028 C 644.160 566.250, 675.659 521.300, 695.224 476.234 C 698.676 468.283, 702.735 460.433, 704.244 458.789 C 706.989 455.801, 706.989 455.801, 716.244 456.383 C 744.439 458.156, 756.542 458.202, 765.923 456.575 C 771.106 455.676, 777.269 454.090, 779.620 453.050 C 787.919 449.379, 795.915 439.093, 799.228 427.828 C 800.147 424.702, 800.428 416.298, 800.241 397.573 C 799.989 372.257, 799.926 371.550, 797.590 367.573 C 794.394 362.133, 782.557 350.835, 777.182 348.093 C 772.691 345.802, 772.045 345.703, 750.142 343.966 C 742.796 343.383, 732.728 342.074, 727.769 341.057 C 716.171 338.678, 714.615 337.194, 711.930 325.951 C 704.714 295.734, 688.832 263.038, 667.624 234.738 C 638.451 195.810, 605.901 167.792, 566.759 147.917 C 539.763 134.210, 519.802 127.721, 482.256 120.447 C 465.993 117.296, 457.941 115.302, 456.729 114.124 C 455.273 112.708, 454.786 109.548, 453.989 96.313 C 452.825 77.009, 449.645 51.465, 447.518 44.343 C 445.208 36.609, 440.317 30.200, 433.998 26.631 C 428.575 23.567, 428.457 23.549, 408.525 22.836 C 365.377 21.292, 358.273 21.173, 351.950 21.888 M 390.422 72.363 C 383.785 75.372, 378.824 84.731, 375.507 100.500 C 373.107 111.910, 373.656 126.994, 377.584 157.587 C 380.113 177.281, 381.369 191.714, 381.851 206.605 C 382.533 227.710, 382.533 227.710, 385.543 232.579 C 389.619 239.171, 396.306 243.250, 403.943 243.802 C 410.817 244.299, 415.517 242.427, 420.640 237.153 C 426.129 231.501, 427.411 225.279, 426.650 208 C 426.298 200.025, 425.547 190.575, 424.982 187 C 424.416 183.425, 423.549 170.375, 423.055 158 C 421.886 128.733, 416.943 88.763, 413.583 81.409 C 410.494 74.651, 406.254 71.693, 399.065 71.285 C 395.773 71.098, 392.243 71.538, 390.422 72.363 M 458.979 184.021 C 457.891 185.109, 457 187.119, 457 188.487 C 457 189.854, 458.615 207.967, 460.588 228.737 C 464.201 266.770, 464.372 274.528, 461.826 284.885 C 458.815 297.136, 451.864 306.933, 443.169 311.182 C 438.959 313.239, 436.532 313.527, 418.500 314.109 C 405.775 314.520, 395.772 315.362, 391 316.423 C 381.303 318.580, 364.374 318.617, 357.990 316.497 C 346.500 312.680, 340.353 303.395, 338.868 287.610 C 338.346 282.056, 337.059 274.134, 336.009 270.006 C 332.940 257.940, 330.225 241.415, 328.512 224.375 C 326.191 201.298, 326.352 202, 323.374 202 C 320.372 202, 303.905 210.289, 288.500 219.553 C 267.834 231.982, 238.142 254.305, 214.147 275.452 C 194.175 293.054, 192.746 295.418, 189.097 316.903 C 186.341 333.132, 186.365 336.541, 189.250 338.417 C 191.232 339.705, 192.691 339.685, 201.500 338.250 C 208.739 337.070, 218.401 336.604, 236.500 336.560 C 258.030 336.508, 262.325 336.754, 267.441 338.334 C 278.428 341.724, 285.555 348.548, 288.569 358.562 C 290.680 365.577, 290.633 423.506, 288.510 430.655 C 286.328 438.003, 282.141 443.092, 273.554 448.836 C 263.955 455.256, 253.128 458.771, 239.062 460.036 C 216.755 462.041, 195.522 465.193, 193.750 466.761 C 192.788 467.613, 192 469.511, 192 470.980 C 192 474.812, 208.290 531.727, 210.753 536.500 C 211.888 538.700, 214.096 541.700, 215.658 543.166 C 219.066 546.363, 257.939 572.520, 270.164 579.842 C 281.680 586.739, 301.370 596.114, 312.500 600 C 324.234 604.097, 343.253 609, 347.413 609 C 354.346 609, 354.401 608.701, 357.804 552.925 C 358.558 540.562, 359.084 537.496, 361.267 532.728 C 365.953 522.493, 375.984 514.793, 389.105 511.360 C 394.108 510.051, 400.072 509.687, 416.500 509.690 C 446.655 509.695, 457.490 512.081, 464.489 520.258 C 470.627 527.429, 471.116 530.229, 472.213 564.500 C 473.135 593.311, 473.673 598, 476.052 598 C 477.158 598, 520.792 579.596, 529.670 575.386 C 533.613 573.515, 539.091 570.206, 541.842 568.030 C 546.182 564.600, 593.481 515.039, 613.579 492.863 C 620.887 484.799, 634 463.159, 634 459.162 C 634 455.961, 630.468 455, 618.685 454.997 C 598.829 454.992, 581.565 451.571, 567.507 444.856 C 556.631 439.660, 552.163 431.571, 553.410 419.334 C 554.322 410.382, 552.388 395.945, 548.884 385.551 C 545.013 374.073, 545.311 370.377, 550.752 362.365 C 556.057 354.554, 561.870 349.421, 569.377 345.922 C 580.887 340.556, 584.983 340.027, 617.112 339.753 C 640.428 339.553, 647.045 339.209, 648.348 338.128 C 653.869 333.542, 644.974 310.186, 627.542 283.500 C 609.168 255.372, 584.932 230.932, 560.753 216.150 C 539.237 202.996, 508.410 191.370, 480 185.696 C 460.153 181.731, 461.186 181.814, 458.979 184.021 M 188 372.689 C 185.525 372.876, 172.475 373.940, 159 375.053 C 145.525 376.166, 124.150 377.491, 111.500 377.998 C 98.491 378.520, 85.242 379.592, 81 380.466 C 75.563 381.586, 68.779 381.941, 56.335 381.755 C 39.247 381.501, 39.159 381.511, 36.490 384 C 31.645 388.519, 30.768 391.466, 30.707 403.429 C 30.661 412.563, 31.016 415.316, 32.732 419.166 C 36.593 427.822, 43.595 429.676, 59.238 426.185 C 73.724 422.952, 76.660 422.707, 84.895 424.044 C 91.974 425.194, 93.126 425.127, 99.051 423.218 C 110.780 419.439, 115.248 418.926, 144.500 418.002 C 160.450 417.498, 180.922 416.606, 189.992 416.020 C 201.218 415.294, 206.593 415.280, 206.826 415.977 C 207.270 417.310, 226.323 417.316, 231.118 415.984 C 236.537 414.479, 241.129 410.998, 244.693 405.696 C 252.389 394.245, 248.665 379.823, 236.540 374.124 C 232.363 372.161, 230.528 372.013, 212.261 372.175 C 201.392 372.271, 190.475 372.502, 188 372.689 M 708.500 376.687 C 667.289 377.670, 617.860 380.586, 609.187 382.547 C 605.325 383.420, 604.448 387.376, 605 401.436 C 605.460 413.153, 605.682 414.326, 607.764 416.011 C 611.358 418.920, 620.479 419.342, 664 418.612 C 691.525 418.150, 706.903 418.283, 712 419.026 C 716.125 419.627, 722.964 420.374, 727.198 420.685 C 734.277 421.205, 735.262 421.036, 739.454 418.580 C 748.721 413.149, 752.641 400.412, 748.114 390.444 C 744.357 382.173, 733.209 375.709, 723.568 376.212 C 721.331 376.329, 714.550 376.543, 708.500 376.687 M 0.405 408.500 C 0.406 417.300, 0.559 420.766, 0.745 416.203 C 0.930 411.639, 0.929 404.439, 0.742 400.203 C 0.555 395.966, 0.404 399.700, 0.405 408.500 M 405.335 554.938 C 404.145 555.452, 402.750 556.625, 402.235 557.545 C 401.720 558.465, 401.466 565.581, 401.671 573.359 C 401.901 582.107, 401.163 599.513, 399.734 619 C 398.401 637.179, 397.739 652.192, 398.169 654.500 C 398.578 656.700, 398.952 666.150, 399 675.500 C 399.122 699.437, 400.451 718.042, 402.293 721.582 C 406.719 730.094, 417.778 734.262, 426.282 730.623 C 430.174 728.958, 434.489 724.516, 435.936 720.685 C 438.612 713.604, 435.353 647.391, 430.463 609.500 C 427.337 585.268, 422.595 558.722, 421.063 556.873 C 419.251 554.686, 408.877 553.410, 405.335 554.938" stroke="none" fill="#040404" fill-rule="evenodd"/></svg>